HIERARCHY
ROOT Hips
{
	OFFSET -3.958830 18.904000 13.208200
	CHANNELS 6 Xposition Yposition Zposition Zrotation Yrotation Xrotation 
	JOINT LHipJoint
	{
		OFFSET 0.000000 0.000000 0.000000
		CHANNELS 3 Zrotation Yrotation Xrotation
		JOINT LeftUpLeg
		{
			OFFSET 1.800000 -1.400000 0.085000
			CHANNELS 3 Zrotation Yrotation Xrotation
			JOINT LeftLeg
			{
				OFFSET 2.215000 -6.000000 0.000000
				CHANNELS 3 Zrotation Yrotation Xrotation
				JOINT LeftFoot
				{
					OFFSET 2.500000 -6.900000 0.000000
					CHANNELS 3 Zrotation Yrotation Xrotation
					JOINT LeftToeBase
					{
						OFFSET 0.200000 -0.500000 1.950000
						CHANNELS 3 Zrotation Yrotation Xrotation
						End Site
						{
							OFFSET 0.000000 0.000000 0.000000
						}
					}
				}
			}
		}
	}
	JOINT RHipJoint
	{
		OFFSET 0.000000 0.000000 0.000000
		CHANNELS 3 Zrotation Yrotation Xrotation
		JOINT RightUpLeg
		{
			OFFSET -1.800000 -1.400000 0.085000
			CHANNELS 3 Zrotation Yrotation Xrotation
			JOINT RightLeg
			{
				OFFSET -2.215000 -6.000000 0.000000
				CHANNELS 3 Zrotation Yrotation Xrotation
				JOINT RightFoot
				{
					OFFSET -2.500000 -6.900000 0.000000
					CHANNELS 3 Zrotation Yrotation Xrotation
					JOINT RightToeBase
					{
						OFFSET -0.200000 -0.500000 1.950000
						CHANNELS 3 Zrotation Yrotation Xrotation
						End Site
						{
							OFFSET 0.000000 0.000000 0.000000
						}
					}
				}
			}
		}
	}
	JOINT LowerBack
	{
		OFFSET 0.000000 0.000000 0.000000
		CHANNELS 3 Zrotation Yrotation Xrotation
		JOINT Spine
		{
			OFFSET -0.087000 1.940000 -0.288900
			CHANNELS 3 Zrotation Yrotation Xrotation
			JOINT Spine1
			{
				OFFSET 0.000000 1.950000 0.060000
				CHANNELS 3 Zrotation Yrotation Xrotation
				JOINT Neck
				{
					OFFSET 0.000000 0.000000 0.000000
					CHANNELS 3 Zrotation Yrotation Xrotation
					JOINT Neck1
					{
						OFFSET 0.000000 1.600000 0.340000
						CHANNELS 3 Zrotation Yrotation Xrotation
						JOINT Head
						{
							OFFSET 0.000000 1.667000 -0.240000
							CHANNELS 3 Zrotation Yrotation Xrotation
							End Site
							{
								OFFSET 0.000000 0.000000 0.000000
							}
						}
					}
				}
				JOINT LeftShoulder
				{
					OFFSET 0.000000 0.000000 0.000000
					CHANNELS 3 Zrotation Yrotation Xrotation
					JOINT LeftArm
					{
						OFFSET 2.700000 1.550000 -0.730000
						CHANNELS 3 Zrotation Yrotation Xrotation
						JOINT LeftForeArm
						{
							OFFSET 5.450000 0.000000 0.000000
							CHANNELS 3 Zrotation Yrotation Xrotation
							JOINT LeftHand
							{
								OFFSET 3.450000 0.000000 0.000000
								CHANNELS 3 Zrotation Yrotation Xrotation
								JOINT LeftHandIndex1
								{
									OFFSET 0.750000 0.000000 0.000000
									CHANNELS 3 Zrotation Yrotation Xrotation
									End Site
									{
										OFFSET 0.000000 0.000000 0.000000
									}
								}
							}
						}
					}
				}
				JOINT RightShoulder
				{
					OFFSET 0.000000 0.000000 0.000000
					CHANNELS 3 Zrotation Yrotation Xrotation
					JOINT RightArm
					{
						OFFSET -2.700000 1.550000 -0.730000
						CHANNELS 3 Zrotation Yrotation Xrotation
						JOINT RightForeArm
						{
							OFFSET -5.450000 0.000000 0.000000
							CHANNELS 3 Zrotation Yrotation Xrotation
							JOINT RightHand
							{
								OFFSET -3.450000 0.000000 0.000000
								CHANNELS 3 Zrotation Yrotation Xrotation
								JOINT RightHandIndex1
								{
									OFFSET -0.750000 0.000000 0.000000
									CHANNELS 3 Zrotation Yrotation Xrotation
									End Site
									{
										OFFSET 0.000000 0.000000 0.000000
									}
								}
							}
						}
					}
				}
			}
		}
	}
}
MOTION
Frames: 11
Frame Time: 0.016667
-25.495960 16.183000 -17.596780 1.552189 -31.327400 -10.429105 -15.886914 10.897338 7.482995 23.105069 -9.113032 -43.616782 -64.599094 40.126631 41.713735 0.665008 15.663833 -1.672034 -0.150190 -0.640700 0.279370 18.044748 -7.800152 2.623304 0.246287 8.693494 -29.671595 -3.211526 -8.838056 53.638117 -0.360669 -7.794433 1.460110 0.572150 0.198140 0.641000 -2.232091 -4.633246 -10.471375 23.215639 -11.502311 47.862048 -5.390729 2.580158 -1.456088 6.332187 2.301175 -25.303953 -5.011031 -3.975503 69.352322 4.733250 -10.014450 -16.920090 -23.742396 -44.750925 12.075340 -21.758717 -53.871864 4.249641 16.236537 -20.100620 -4.130344 -3.476902 1.313427 1.933190 0.024420 1.131830 0.456910 11.257606 45.872841 6.852754 6.959370 25.211702 -10.625067 1.205738 32.056758 2.485605 2.595845 -0.324866 -1.603740 0.226770 -0.398250 0.068030 
-25.575840 16.204770 -17.631940 3.037486 -30.636098 -10.799071 -15.889819 10.736469 7.390268 25.235359 -10.080796 -42.459151 -55.599075 29.935628 37.493982 0.212745 14.339318 -1.366530 -0.233890 -0.733250 0.220980 17.992748 -8.147344 2.708716 -6.807639 7.591878 -30.274214 7.172182 -15.047672 52.723443 -0.412347 -8.754705 1.143175 0.511330 0.203520 0.583950 -2.101008 -3.943716 -10.774989 22.674320 -9.552969 50.926220 -4.737463 5.319474 2.809436 5.394786 0.881889 -34.245061 -5.849785 -4.821846 65.312056 6.258090 -10.968960 -15.482270 -12.256990 -27.213761 41.755348 84.660962 -54.622954 -164.089614 -7.409492 -22.395229 -4.065731 -4.573622 2.417442 1.901100 0.041600 1.043650 0.400350 2.800441 39.620412 -1.616857 -0.368087 26.118507 -14.501234 9.207024 42.176591 6.573738 2.270787 -0.813481 -1.629150 0.145050 -0.405830 0.069710 
-25.621460 16.255300 -17.613250 1.462722 -30.461801 -9.976535 -15.857626 10.909171 7.333364 28.518481 -7.973493 -41.556918 -50.554250 26.150136 35.049382 0.093289 13.548033 -1.012307 -0.195350 -0.572810 0.164510 18.069249 -7.900089 2.601100 -7.757100 7.601507 -27.800539 12.431459 -16.688410 49.059890 -0.414973 -8.700006 1.287324 0.576860 0.306320 0.454820 -2.376815 -4.586790 -10.271470 23.954216 -11.629857 47.200912 -2.163389 1.546726 -3.450539 3.761521 0.156226 -20.532549 -11.501941 -2.448831 62.581373 4.255510 -11.654710 -13.049790 -14.610862 -53.180089 -2.435928 -15.170808 -49.733372 1.328135 13.124073 -21.532183 -3.131396 -3.725113 1.450300 1.705570 0.100080 0.966050 0.524400 7.363993 51.865702 9.214573 -0.930689 20.878860 -13.563640 9.753912 41.604241 5.620293 2.556560 -0.978925 -1.598550 0.282270 -0.515640 0.176700 
-25.658090 16.347120 -17.567410 1.847109 -30.612263 -10.672316 -15.606604 10.574516 7.090317 30.413532 -3.752782 -36.404987 -52.060745 23.949524 27.870875 0.059309 12.575377 -0.592693 -0.015030 -0.173200 0.213980 18.303323 -8.278902 2.588186 -9.195839 8.658463 -25.031281 15.062352 -16.020764 45.785553 -0.357145 -8.336616 1.528222 0.770430 0.305470 0.202200 -3.284556 -3.098623 -9.857706 29.163861 -11.997020 43.017392 -5.568022 0.867505 2.867106 2.902062 -2.463950 -17.390272 -17.683479 -1.884703 57.457331 7.589640 -13.084900 -16.806290 -7.731853 -50.907189 -6.695573 -7.174293 -48.564520 -2.884888 13.736227 -28.431287 -3.546289 -3.219436 1.640134 1.568450 0.065820 0.914350 0.584370 1.970683 52.641796 8.523544 -3.562198 21.567029 -13.055582 3.206122 39.280138 2.991015 2.694502 -0.797791 -1.563590 0.434150 -0.740330 0.266430 
-25.689130 16.531090 -17.496780 5.219861 -30.215398 -14.488168 -15.241903 10.100758 6.771840 29.860230 -2.343107 -32.267253 -54.308869 24.661733 25.844311 0.360111 12.143973 -0.214892 0.336190 0.468730 0.266810 18.599906 -9.367787 2.153658 -11.488219 7.033818 -20.192255 13.348667 -13.249463 41.999927 -0.203049 -7.565303 1.876996 1.100990 0.328360 -0.127930 -4.449682 -0.550047 -9.294587 32.583934 -11.417185 40.135284 -7.962333 -1.484244 11.258779 -0.205780 -7.251028 -13.835171 -25.549925 -0.527380 50.459651 13.218450 -14.350790 -18.955940 -2.233874 -49.007954 -4.674899 12.482872 -49.234733 -13.787232 22.052973 -28.924806 -5.180641 -2.977518 1.704001 1.274130 0.001670 0.789030 0.754500 2.149493 52.029295 4.098822 -5.578279 28.589341 -10.564831 -4.921870 29.489712 -0.550796 3.112802 -0.822854 -1.442370 0.612720 -1.063330 0.425640 
-25.815050 16.689190 -17.553180 5.853401 -28.882101 -14.931575 -15.149086 9.288162 7.046709 32.407007 -1.022061 -36.231613 -55.237478 29.808083 31.396174 0.609766 12.835808 -0.403921 0.806760 1.106760 0.361540 18.864409 -9.834541 1.680811 -7.446141 5.898577 -17.648315 6.611001 -9.125065 40.425489 -0.038542 -6.731858 2.131380 1.550320 0.272290 -0.264040 -5.248763 1.264155 -8.984625 32.170433 -10.243779 40.580011 -5.365856 -1.942000 14.193613 -7.824833 -9.252669 -7.051243 -27.253599 0.039835 40.965176 17.100610 -13.247280 -17.333040 7.945470 -39.562403 -7.541930 26.253641 -54.119990 -19.168629 18.461059 -26.165682 -3.231094 -2.659057 2.350630 0.947160 -0.039100 0.640310 0.951130 5.217061 41.247929 3.906807 -15.837110 31.081745 -12.170859 -1.444544 39.879146 0.521183 3.016126 -1.357447 -1.286510 0.572030 -1.315640 0.519800 
-25.871900 16.890880 -17.543250 8.455917 -28.195194 -18.389188 -15.039977 9.314329 7.056055 33.051316 -0.508138 -33.504208 -60.626768 35.806814 34.144219 1.105849 13.608110 -0.374089 0.668540 1.024560 0.117690 18.950030 -10.456298 1.291007 -4.425060 3.375837 -12.951919 -3.620039 -4.308252 37.147591 0.077027 -5.777547 2.610776 1.483910 0.547960 -0.248040 -5.443004 2.025461 -8.788714 31.788084 -9.899673 42.368721 -5.745903 -1.673544 15.064480 -9.470268 -9.696489 -5.360791 -26.291232 -2.579752 39.102189 16.030880 -15.471070 -15.504960 11.205382 -34.831315 -8.035971 32.032163 -50.632919 -18.935688 14.304213 -32.147131 -1.482138 -2.756212 2.427016 0.745780 0.085810 0.547970 1.106730 5.095632 37.594438 3.642709 -18.103450 29.855955 -13.143492 -1.395974 45.482896 0.532982 2.933708 -1.406497 -1.259120 0.794780 -1.194270 0.657520 
-25.936850 17.034380 -17.543420 9.826605 -27.929592 -21.847540 -15.233529 9.452345 7.237328 32.117743 -2.313253 -36.405516 -56.520203 38.449678 41.601995 2.640671 14.062173 0.178315 0.619650 1.032070 -0.080460 18.843725 -9.639346 1.919548 8.550201 2.956678 -9.270067 -26.799025 5.059146 37.153542 -0.984246 -6.081359 2.738913 0.781140 0.573690 -0.215170 -4.857532 0.656821 -9.166868 29.165183 -11.724854 47.071180 -5.094619 -0.609678 8.736308 -6.543765 -11.984487 -8.991240 -35.387965 -0.868354 44.323888 14.159230 -18.530970 -14.667760 7.596790 -36.637285 -8.681335 27.819601 -47.416902 -13.272074 -9.784342 -36.968144 8.152815 -2.678984 3.256271 0.192070 -0.156730 0.590210 1.338510 4.132925 43.064136 6.009962 -18.063247 25.888599 -12.525171 7.396890 46.779566 4.870935 2.865556 -1.484250 -0.391540 1.018220 -0.934370 0.872410 
-26.064290 17.292980 -17.504380 15.378767 -31.379866 -28.067107 -15.400711 11.248019 7.192575 28.418158 -5.142331 -33.330739 -52.897197 34.892885 41.188319 1.985290 13.862194 0.302295 0.023370 0.164000 0.291310 18.345602 -10.044958 0.904190 -7.849507 -0.522237 -2.592013 -6.760914 -3.520550 30.473215 -0.169420 -4.376865 3.415169 0.384980 0.591320 -0.840780 -3.059359 -2.639798 -9.013815 20.717329 -7.827266 53.710664 -2.647508 4.140001 2.529248 0.542636 -11.131005 -19.688868 -45.327795 6.976638 60.537124 11.045770 -21.615700 -12.903950 -2.569057 -41.136875 -4.918118 25.592526 -41.382741 -9.240780 -19.930349 -34.481623 12.047658 -2.528702 1.687998 0.914540 -0.263960 0.438350 0.647420 4.765225 52.266486 9.736094 -13.044029 18.461942 -12.600706 15.779601 45.309208 8.155000 2.851148 -0.943271 -1.197420 1.463010 -0.786310 0.421390 
-26.141010 17.494440 -17.514510 20.166849 -32.574581 -32.967569 -15.609323 11.650214 7.205010 30.850068 -4.357385 -31.615172 -49.619755 38.456091 46.774180 2.118193 14.842676 0.059691 -0.365560 -0.667380 0.152800 18.130851 -9.660480 0.721453 -14.270873 -0.726625 1.215465 -0.250186 -5.955384 26.544973 -0.279871 -4.274221 3.235195 -0.275360 0.644480 -0.694400 -2.187629 -4.217196 -9.280578 14.143949 -3.681712 57.598733 -0.534737 8.107948 1.873505 2.372616 -9.482978 -23.989744 -42.665884 5.780220 66.298316 13.195460 -25.878830 -12.203760 -0.984492 -40.977438 -3.187799 27.461075 -33.318147 -10.904351 -6.387482 -41.001463 6.659480 -3.084695 1.900836 0.971660 -0.322910 0.062050 0.124460 2.130797 54.122312 11.387902 -12.272374 12.330036 -15.688473 18.047180 46.820553 9.531918 2.141497 -1.050640 -0.997640 1.424070 0.104270 0.071630 
-26.156540 17.760820 -17.524320 18.644571 -30.843529 -28.562160 -15.868369 11.088388 7.837284 40.589740 -3.847435 -37.108235 -31.669300 39.119210 64.749329 2.770739 15.727047 -0.310855 0.088920 -0.001510 0.094510 18.176233 -9.007363 0.719012 -9.065194 -0.391299 -1.879207 2.832209 -7.129243 29.193668 -0.651914 -4.314632 3.070672 -0.254100 0.138060 -0.358330 -2.166325 -4.251102 -9.597113 13.481391 -8.352849 56.548657 -3.181078 9.629815 -9.080450 3.815275 -9.062871 -25.852277 -44.894242 11.970881 72.547765 19.622240 -25.556910 -16.487360 -6.432172 -39.587770 -0.433126 21.625905 -32.405356 -4.926799 -24.839463 -36.807673 13.498265 -2.640088 2.773221 0.749220 -0.550720 0.354080 0.194560 6.065105 51.885206 9.554504 -6.928511 22.628801 -7.523537 17.158610 37.420739 8.905538 2.564801 -0.806111 -0.188010 0.776570 -0.087830 0.210660 
